%TF.GenerationSoftware,KiCad,Pcbnew,7.0.1*%
%TF.CreationDate,2023-04-03T21:17:09-03:00*%
%TF.ProjectId,main,6d61696e-2e6b-4696-9361-645f70636258,rev?*%
%TF.SameCoordinates,Original*%
%TF.FileFunction,Copper,L2,Bot*%
%TF.FilePolarity,Positive*%
%FSLAX46Y46*%
G04 Gerber Fmt 4.6, Leading zero omitted, Abs format (unit mm)*
G04 Created by KiCad (PCBNEW 7.0.1) date 2023-04-03 21:17:09*
%MOMM*%
%LPD*%
G01*
G04 APERTURE LIST*
%TA.AperFunction,ComponentPad*%
%ADD10R,3.000000X3.000000*%
%TD*%
%TA.AperFunction,ComponentPad*%
%ADD11C,3.000000*%
%TD*%
%TA.AperFunction,ComponentPad*%
%ADD12R,13.000000X13.000000*%
%TD*%
%TA.AperFunction,ViaPad*%
%ADD13C,1.200000*%
%TD*%
G04 APERTURE END LIST*
D10*
%TO.P,J101,1,Pin_1*%
%TO.N,VCC*%
X130556000Y-54864000D03*
D11*
%TO.P,J101,2,Pin_2*%
%TO.N,/Vout*%
X130556000Y-49784000D03*
%TO.P,J101,3,Pin_3*%
%TO.N,GND*%
X130556000Y-44704000D03*
%TD*%
D12*
%TO.P,H102,1,1*%
%TO.N,/-Vshunt*%
X114046000Y-81280000D03*
%TD*%
%TO.P,H101,1,1*%
%TO.N,/+Vshunt*%
X114300000Y-43180000D03*
%TD*%
D13*
%TO.N,/-Vshunt*%
X109855000Y-69850000D03*
X114935000Y-69850000D03*
X117475000Y-69850000D03*
X107315000Y-69850000D03*
X111125000Y-69850000D03*
X116205000Y-69850000D03*
X113665000Y-69850000D03*
X118745000Y-69850000D03*
X108585000Y-69850000D03*
X112395000Y-69850000D03*
X120015000Y-69850000D03*
X121285000Y-69850000D03*
%TO.N,/+Vshunt*%
X121285000Y-55880000D03*
X120015000Y-55880000D03*
X118745000Y-55880000D03*
X117475000Y-55880000D03*
X116205000Y-55880000D03*
X114935000Y-55880000D03*
X113665000Y-55880000D03*
X112395000Y-55880000D03*
X111125000Y-55880000D03*
X109855000Y-55880000D03*
X108585000Y-55880000D03*
X107315000Y-55880000D03*
%TD*%
%TA.AperFunction,Conductor*%
%TO.N,/-Vshunt*%
G36*
X121855677Y-64027370D02*
G01*
X121902715Y-64072914D01*
X121920000Y-64136065D01*
X121920000Y-99444000D01*
X121903387Y-99506000D01*
X121858000Y-99551387D01*
X121796000Y-99568000D01*
X106804500Y-99568000D01*
X106742500Y-99551387D01*
X106697113Y-99506000D01*
X106680500Y-99444000D01*
X106680500Y-64619662D01*
X106696453Y-64558820D01*
X106740206Y-64513632D01*
X106800502Y-64495726D01*
X121792002Y-64012129D01*
X121855677Y-64027370D01*
G37*
%TD.AperFunction*%
%TD*%
%TA.AperFunction,Conductor*%
%TO.N,/+Vshunt*%
G36*
X122490947Y-26053729D02*
G01*
X122537581Y-26099421D01*
X122554542Y-26162466D01*
X122442924Y-57303936D01*
X122428445Y-61344000D01*
X122428443Y-61344444D01*
X122411683Y-61406256D01*
X122366316Y-61451461D01*
X122304444Y-61468000D01*
X106804500Y-61468000D01*
X106742500Y-61451387D01*
X106697113Y-61406000D01*
X106680500Y-61344000D01*
X106680500Y-26537047D01*
X106696620Y-26475908D01*
X106740790Y-26430665D01*
X106801523Y-26413083D01*
X122427569Y-26038058D01*
X122490947Y-26053729D01*
G37*
%TD.AperFunction*%
%TD*%
%TA.AperFunction,Conductor*%
%TO.N,GND*%
G36*
X134557500Y-26052113D02*
G01*
X134602887Y-26097500D01*
X134619500Y-26159500D01*
X134619500Y-99569749D01*
X134602680Y-99632107D01*
X134556783Y-99677547D01*
X134494261Y-99693742D01*
X131493816Y-99663738D01*
X123317609Y-99581975D01*
X123253813Y-99563557D01*
X123208667Y-99514865D01*
X123195115Y-99449864D01*
X123195500Y-99444000D01*
X123195500Y-64136065D01*
X123184137Y-63966186D01*
X123150249Y-63799335D01*
X123132964Y-63736184D01*
X123123274Y-63710144D01*
X123053838Y-63523533D01*
X122938283Y-63328267D01*
X122789958Y-63156561D01*
X122742925Y-63111022D01*
X122566538Y-62968325D01*
X122524443Y-62945213D01*
X122480398Y-62904470D01*
X122460637Y-62847817D01*
X122469787Y-62788520D01*
X122505707Y-62740460D01*
X122559984Y-62714890D01*
X122593060Y-62708326D01*
X122633824Y-62700237D01*
X122633827Y-62700236D01*
X122633833Y-62700235D01*
X122695705Y-62683696D01*
X122904216Y-62607992D01*
X122905276Y-62607382D01*
X122933347Y-62591218D01*
X123096458Y-62497306D01*
X123166081Y-62439073D01*
X123266607Y-62354995D01*
X123266609Y-62354992D01*
X123266616Y-62354987D01*
X123311983Y-62309782D01*
X123454910Y-62140134D01*
X123566283Y-61948289D01*
X123642732Y-61740049D01*
X123659492Y-61678237D01*
X123692478Y-61515079D01*
X123703935Y-61349016D01*
X123721628Y-56412634D01*
X128547500Y-56412634D01*
X128554011Y-56473205D01*
X128605110Y-56610203D01*
X128692738Y-56727261D01*
X128809796Y-56814889D01*
X128946794Y-56865988D01*
X128946797Y-56865988D01*
X128946799Y-56865989D01*
X129007362Y-56872500D01*
X132104634Y-56872500D01*
X132104638Y-56872500D01*
X132165201Y-56865989D01*
X132165203Y-56865988D01*
X132165205Y-56865988D01*
X132243124Y-56836924D01*
X132302204Y-56814889D01*
X132419261Y-56727261D01*
X132506889Y-56610204D01*
X132557989Y-56473201D01*
X132564500Y-56412638D01*
X132564500Y-53315362D01*
X132557989Y-53254799D01*
X132557988Y-53254797D01*
X132557988Y-53254794D01*
X132506889Y-53117796D01*
X132419261Y-53000738D01*
X132302203Y-52913110D01*
X132165205Y-52862011D01*
X132134919Y-52858755D01*
X132104638Y-52855500D01*
X129007362Y-52855500D01*
X128980445Y-52858393D01*
X128946794Y-52862011D01*
X128809796Y-52913110D01*
X128692738Y-53000738D01*
X128605110Y-53117796D01*
X128554011Y-53254794D01*
X128547500Y-53315366D01*
X128547500Y-56412634D01*
X123721628Y-56412634D01*
X123742512Y-50586054D01*
X123745387Y-49783999D01*
X128542806Y-49783999D01*
X128561558Y-50058132D01*
X128617461Y-50327153D01*
X128709475Y-50586054D01*
X128835890Y-50830027D01*
X128994341Y-51054500D01*
X128994343Y-51054502D01*
X129181889Y-51255314D01*
X129395031Y-51428718D01*
X129629800Y-51571484D01*
X129881823Y-51680953D01*
X130146404Y-51755085D01*
X130418615Y-51792500D01*
X130693385Y-51792500D01*
X130965596Y-51755085D01*
X131230177Y-51680953D01*
X131482200Y-51571484D01*
X131716969Y-51428718D01*
X131930111Y-51255314D01*
X132117657Y-51054502D01*
X132170474Y-50979675D01*
X132276109Y-50830027D01*
X132284125Y-50814555D01*
X132402523Y-50586058D01*
X132494538Y-50327153D01*
X132550442Y-50058130D01*
X132569193Y-49784000D01*
X132550442Y-49509870D01*
X132494538Y-49240847D01*
X132402523Y-48981942D01*
X132341320Y-48863826D01*
X132276109Y-48737972D01*
X132117658Y-48513499D01*
X131930111Y-48312686D01*
X131930110Y-48312685D01*
X131716969Y-48139282D01*
X131482200Y-47996516D01*
X131230177Y-47887047D01*
X131097886Y-47849981D01*
X130965594Y-47812914D01*
X130693385Y-47775500D01*
X130418615Y-47775500D01*
X130146405Y-47812914D01*
X129929798Y-47873604D01*
X129881823Y-47887047D01*
X129881821Y-47887047D01*
X129881820Y-47887048D01*
X129629799Y-47996516D01*
X129395032Y-48139281D01*
X129181888Y-48312686D01*
X128994341Y-48513499D01*
X128835890Y-48737972D01*
X128709475Y-48981945D01*
X128617461Y-49240846D01*
X128561558Y-49509867D01*
X128542806Y-49783999D01*
X123745387Y-49783999D01*
X123830049Y-26162908D01*
X123830984Y-26162911D01*
X123843909Y-26102064D01*
X123889564Y-26053438D01*
X123953805Y-26035500D01*
X134495500Y-26035500D01*
X134557500Y-26052113D01*
G37*
%TD.AperFunction*%
%TD*%
M02*
