M48
; DRILL file {KiCad 7.0.1} date Mon 03 Apr 2023 09:17:11 PM -03
; FORMAT={-:-/ absolute / metric / decimal}
; #@! TF.CreationDate,2023-04-03T21:17:11-03:00
; #@! TF.GenerationSoftware,Kicad,Pcbnew,7.0.1
; #@! TF.FileFunction,Plated,1,2,PTH
FMAT,2
METRIC
; #@! TA.AperFunction,Plated,PTH,ViaDrill
T1C0.600
; #@! TA.AperFunction,Plated,PTH,ComponentDrill
T2C1.520
; #@! TA.AperFunction,Plated,PTH,ComponentDrill
T3C4.000
%
G90
G05
T1
X107.315Y-55.88
X107.315Y-69.85
X108.585Y-55.88
X108.585Y-69.85
X109.855Y-55.88
X109.855Y-69.85
X111.125Y-55.88
X111.125Y-69.85
X112.395Y-55.88
X112.395Y-69.85
X113.665Y-55.88
X113.665Y-69.85
X114.935Y-55.88
X114.935Y-69.85
X116.205Y-55.88
X116.205Y-69.85
X117.475Y-55.88
X117.475Y-69.85
X118.745Y-55.88
X118.745Y-69.85
X120.015Y-55.88
X120.015Y-69.85
X121.285Y-55.88
X121.285Y-69.85
T2
X130.556Y-44.704
X130.556Y-49.784
X130.556Y-54.864
T3
X114.046Y-81.28
X114.3Y-43.18
T0
M30
